# xmcd CD database file
#
# Track frame offsets:
#	150
#	12250
#	28190
#	46422
#
# Disc length: 1048 seconds
#
# Revision: 0
# Processed by: cddbd v1.5.2PL0 Copyright (c) Steve Scherf et al.
# Submitted via: CDex 1.84
#
DISCID=2a041604
DTITLE=The Wigs - CD Single
DYEAR=1997
DGENRE=Country
TTITLE0=Gek op haar [Can't Say Goodbye]
TTITLE1=Maria [Maria Mi Amore]
TTITLE2=Early Morning Wake Up Call [Radio Mix]
TTITLE3=Early Morning Wake Up Call [Extended Mix (Let's Go Jogging)]
EXTD=YEAR: 1997
EXTT0=
EXTT1=
EXTT2=
EXTT3=
PLAYORDER=
